<svg width="25" height="24" viewBox="0 0 25 24" fill="none" xmlns="http://www.w3.org/2000/svg">
<g id="Icon" clip-path="url(#clip0_3591_2599)">
<g id="Vector">
<path d="M4.25 16.5C5.35457 16.5 6.25 15.6046 6.25 14.5C6.25 13.3954 5.35457 12.5 4.25 12.5C3.14543 12.5 2.25 13.3954 2.25 14.5C2.25 15.6046 3.14543 16.5 4.25 16.5Z" fill="#1F0A58"/>
<path d="M1.47 18.08C0.73 18.4 0.25 19.12 0.25 19.93V21.5H4.75V19.89C4.75 19.06 4.98 18.28 5.38 17.6C5.01 17.54 4.64 17.5 4.25 17.5C3.26 17.5 2.32 17.71 1.47 18.08Z" fill="#1F0A58"/>
<path d="M20.25 16.5C21.3546 16.5 22.25 15.6046 22.25 14.5C22.25 13.3954 21.3546 12.5 20.25 12.5C19.1454 12.5 18.25 13.3954 18.25 14.5C18.25 15.6046 19.1454 16.5 20.25 16.5Z" fill="#1F0A58"/>
<path d="M23.03 18.08C22.18 17.71 21.24 17.5 20.25 17.5C19.86 17.5 19.49 17.54 19.12 17.6C19.52 18.28 19.75 19.06 19.75 19.89V21.5H24.25V19.93C24.25 19.12 23.77 18.4 23.03 18.08Z" fill="#1F0A58"/>
<path d="M16.49 17.15C15.32 16.63 13.88 16.25 12.25 16.25C10.62 16.25 9.18 16.64 8.01 17.15C6.93 17.63 6.25 18.71 6.25 19.89V21.5H18.25V19.89C18.25 18.71 17.57 17.63 16.49 17.15Z" fill="#1F0A58"/>
<path d="M9.25 12.5C9.25 14.16 10.59 15.5 12.25 15.5C13.91 15.5 15.25 14.16 15.25 12.5C15.25 10.84 13.91 9.5 12.25 9.5C10.59 9.5 9.25 10.84 9.25 12.5Z" fill="#1F0A58"/>
<path d="M2.73 11.36C2.42 10.6 2.25 9.86 2.25 9.1C2.25 6.52 4.27 4.5 6.85 4.5C9.53 4.5 10.67 6.24 12.25 8.09C13.82 6.26 14.95 4.5 17.65 4.5C20.23 4.5 22.25 6.52 22.25 9.1C22.25 9.86 22.08 10.6 21.77 11.36C22.42 11.67 22.95 12.18 23.3 12.8C23.9 11.6 24.25 10.38 24.25 9.1C24.25 5.4 21.35 2.5 17.65 2.5C15.56 2.5 13.56 3.47 12.25 5.01C10.94 3.47 8.94 2.5 6.85 2.5C3.15 2.5 0.25 5.4 0.25 9.1C0.25 10.38 0.6 11.6 1.21 12.8C1.56 12.18 2.09 11.67 2.73 11.36Z" fill="#1F0A58"/>
</g>
</g>
<defs>
<clipPath id="clip0_3591_2599">
<rect width="24" height="24" fill="white" transform="translate(0.25)"/>
</clipPath>
</defs>
</svg>
