<svg width="19" height="18" viewBox="0 0 19 18" fill="none" xmlns="http://www.w3.org/2000/svg">
<g id="calendar_month">
<path id="Vector" d="M14.75 3H14V1.5H12.5V3H6.5V1.5H5V3H4.25C3.4175 3 2.7575 3.675 2.7575 4.5L2.75 15C2.75 15.825 3.4175 16.5 4.25 16.5H14.75C15.575 16.5 16.25 15.825 16.25 15V4.5C16.25 3.675 15.575 3 14.75 3ZM14.75 15H4.25V7.5H14.75V15ZM14.75 6H4.25V4.5H14.75V6ZM7.25 10.5H5.75V9H7.25V10.5ZM10.25 10.5H8.75V9H10.25V10.5ZM13.25 10.5H11.75V9H13.25V10.5ZM7.25 13.5H5.75V12H7.25V13.5ZM10.25 13.5H8.75V12H10.25V13.5ZM13.25 13.5H11.75V12H13.25V13.5Z" fill="#37168B"/>
</g>
</svg>
