<svg width="290" height="289" viewBox="0 0 290 289" fill="none" xmlns="http://www.w3.org/2000/svg">
<path d="M127.821 44.8502L145.414 61.4982L163.452 44.4283C202.091 7.86248 262.696 25.6578 278.932 78.3371C288.286 108.685 279.488 142.133 256.766 162.61L145.414 262.968L34.3804 163.625C11.474 143.131 2.54608 109.533 11.8959 79.0128C28.118 26.0585 89.0068 8.11572 127.821 44.8502Z" fill="#CEBFFC"/>
<path d="M163.779 178.011C162.063 176.296 159.737 175.333 157.311 175.333C154.886 175.333 152.559 176.296 150.844 178.011L154.077 174.778C154.927 173.929 155.6 172.921 156.06 171.811C156.52 170.701 156.756 169.512 156.756 168.311C156.756 167.109 156.52 165.92 156.06 164.81C155.6 163.701 154.927 162.692 154.077 161.843C152.362 160.128 150.036 159.164 147.61 159.164C145.184 159.164 142.858 160.128 141.143 161.843L134.675 168.311C136.39 166.595 137.354 164.269 137.354 161.843C137.354 159.418 136.39 157.091 134.675 155.376C132.96 153.661 130.633 152.697 128.208 152.697C125.782 152.697 123.456 153.661 121.74 155.376L106.192 170.925C107.907 169.209 108.87 166.883 108.87 164.457C108.87 162.032 107.907 159.705 106.191 157.99C104.476 156.275 102.15 155.311 99.7239 155.311C97.2981 155.311 94.9717 156.275 93.2565 157.99L64.9486 186.298C55.6701 187.213 46.9957 191.316 40.4028 197.909L2.79199 235.517L35.673 286.713L69.9997 252.386L105.613 239.032C116.24 235.046 125.891 228.832 133.917 220.807L134.674 220.05L163.779 190.946C165.494 189.231 166.457 186.904 166.457 184.479C166.457 182.053 165.494 179.727 163.779 178.011Z" fill="white"/>
<path d="M200.672 52.4697L134.38 118.762C132.666 120.477 131.702 122.803 131.702 125.228C131.702 127.654 132.666 129.98 134.38 131.695C136.096 133.41 138.422 134.373 140.847 134.373C143.273 134.373 145.599 133.41 147.314 131.695L154.654 124.355C155.065 125.908 155.879 127.324 157.015 128.46C158.73 130.174 161.057 131.138 163.482 131.138C165.907 131.138 168.233 130.174 169.949 128.46L177.055 121.354C177.466 122.906 178.28 124.323 179.414 125.461C180.548 126.598 181.962 127.417 183.514 127.834C185.065 128.251 186.699 128.251 188.25 127.835C189.802 127.418 191.216 126.6 192.35 125.463L233.008 84.8054L200.672 52.4697Z" fill="#E6DCFF"/>
<path d="M127.912 105.823C126.197 107.538 125.233 109.865 125.233 112.29C125.233 114.716 126.197 117.042 127.912 118.758C128.761 119.607 129.77 120.281 130.88 120.74C131.989 121.2 133.179 121.437 134.38 121.437C135.581 121.437 136.77 121.2 137.88 120.74C138.99 120.281 139.998 119.607 140.847 118.758L165.1 94.5045L210.374 75.1017L221.769 83.2117L200.691 104.212C199.84 105.06 199.165 106.067 198.703 107.176C198.242 108.286 198.004 109.475 198.003 110.676C198.002 111.878 198.237 113.068 198.697 114.178C199.156 115.288 199.83 116.297 200.679 117.146C201.528 117.995 202.535 118.668 203.644 119.127C204.752 119.586 205.94 119.823 207.14 119.823C208.34 119.823 209.529 119.586 210.637 119.127C211.746 118.668 212.753 117.995 213.602 117.146L229.776 100.969C242.352 92.5854 251.774 80.2497 256.553 65.912L258.88 58.9305L286.636 31.1777L230.878 2.8584L127.912 105.823Z" fill="white"/>
<path d="M288.397 29.4172C288.184 29.2048 287.932 29.0364 287.655 28.9215C287.377 28.8066 287.08 28.7474 286.78 28.7474C286.479 28.7474 286.182 28.8066 285.905 28.9215C285.627 29.0364 285.375 29.2048 285.163 29.4172L257.261 57.3186C257.009 57.5693 256.82 57.8752 256.708 58.2121L254.384 65.1936C249.744 79.0377 240.644 90.9521 228.508 99.071C228.383 99.1544 228.266 99.2502 228.16 99.3568L211.986 115.531C210.701 116.815 208.959 117.537 207.142 117.537C205.326 117.537 203.584 116.815 202.299 115.531L202.291 115.521L202.286 115.517C201.004 114.23 200.286 112.486 200.29 110.67C200.293 108.853 201.018 107.112 202.305 105.83L223.383 84.8307C223.619 84.596 223.8 84.3127 223.915 84.0005C224.03 83.6882 224.076 83.3547 224.049 83.0231C224.021 82.6915 223.922 82.3699 223.758 82.0806C223.593 81.7913 223.368 81.5414 223.097 81.3483L211.698 73.2389C211.378 73.0115 211.006 72.8701 210.616 72.8282C210.226 72.7864 209.832 72.8455 209.471 73L164.197 92.4022C163.93 92.5168 163.687 92.6813 163.481 92.8869L139.23 117.141C137.942 118.422 136.199 119.14 134.383 119.137C132.567 119.135 130.826 118.412 129.542 117.128C128.258 115.844 127.535 114.103 127.533 112.286C127.53 110.47 128.248 108.727 129.529 107.44L233.066 3.90354C233.495 3.47471 233.736 2.89309 233.736 2.28664C233.736 1.68018 233.495 1.09857 233.066 0.669741C232.638 0.240913 232.056 6.39003e-09 231.45 0C230.843 -6.39004e-09 230.262 0.240913 229.833 0.669741L207.556 22.9467C190.598 23.6819 174.822 30.5205 161.881 42.7668L145.415 58.3493L129.394 43.1892C110.897 25.6838 86.5905 19.2568 62.7072 25.5552C37.6211 32.1708 17.8091 51.9045 9.71 78.342C4.99705 93.724 4.69305 110.119 8.83252 125.666C12.9764 141.26 21.2835 154.976 32.8559 165.329L55.8314 185.886C49.4062 187.957 43.5637 191.522 38.7839 196.289L1.60236 233.471C1.17353 233.9 0.932617 234.481 0.932617 235.088C0.932617 235.694 1.17353 236.276 1.60236 236.705C2.03119 237.134 2.6128 237.374 3.21926 237.374C3.82571 237.374 4.40732 237.134 4.83615 236.705L42.0176 199.526C48.2404 193.313 56.4197 189.444 65.1693 188.573C65.6954 188.521 66.1873 188.289 66.5612 187.915L94.9651 159.512C95.6002 158.866 96.3568 158.353 97.1912 158.001C98.0257 157.649 98.9215 157.466 99.8271 157.463C100.733 157.459 101.63 157.635 102.467 157.98C103.305 158.324 104.065 158.832 104.706 159.472C105.346 160.112 105.853 160.873 106.198 161.71C106.543 162.548 106.718 163.445 106.715 164.35C106.711 165.256 106.528 166.152 106.176 166.986C105.825 167.821 105.311 168.577 104.666 169.212L81.3154 192.563C81.1028 192.775 80.9342 193.027 80.8191 193.305C80.704 193.582 80.6446 193.879 80.6444 194.18C80.6443 194.48 80.7032 194.778 80.818 195.055C80.9328 195.333 81.1011 195.585 81.3134 195.798C81.5256 196.01 81.7777 196.179 82.0551 196.294C82.3325 196.409 82.6299 196.468 82.9303 196.468C83.2306 196.469 83.5281 196.41 83.8057 196.295C84.0832 196.18 84.3355 196.012 84.548 195.8L123.353 156.995C123.988 156.349 124.745 155.836 125.579 155.484C126.414 155.132 127.309 154.949 128.215 154.946C129.12 154.942 130.018 155.118 130.855 155.463C131.692 155.807 132.453 156.315 133.093 156.955C133.734 157.595 134.241 158.356 134.586 159.193C134.931 160.031 135.106 160.928 135.103 161.833C135.099 162.739 134.916 163.635 134.564 164.469C134.213 165.304 133.699 166.06 133.054 166.695L100.717 199.033C100.296 199.463 100.062 200.042 100.065 200.644C100.068 201.246 100.309 201.823 100.735 202.248C101.16 202.674 101.737 202.915 102.339 202.918C102.941 202.922 103.52 202.687 103.95 202.267L142.755 163.463C144.041 162.176 145.786 161.453 147.605 161.453C149.425 161.452 151.17 162.175 152.457 163.461C153.744 164.747 154.467 166.492 154.467 168.311C154.468 170.13 153.746 171.876 152.459 173.162L149.269 176.353C149.254 176.368 149.238 176.38 149.224 176.394C149.21 176.408 149.212 176.41 149.205 176.417L124.811 200.811C122.612 199.357 119.979 198.708 117.356 198.973C114.734 199.238 112.284 200.4 110.42 202.264L95.8666 216.816L94.2494 215.199C89.5288 210.489 83.1326 207.844 76.4641 207.844C69.7956 207.844 63.3994 210.489 58.6788 215.199C58.2579 215.63 58.0237 216.209 58.027 216.811C58.0303 217.413 58.2709 217.989 58.6965 218.415C59.1222 218.841 59.6985 219.081 60.3005 219.085C60.9025 219.088 61.4816 218.854 61.912 218.433C65.7744 214.58 71.0077 212.415 76.4638 212.415C81.9199 212.415 87.1532 214.58 91.0156 218.433L94.25 221.666C94.6788 222.095 95.2603 222.336 95.8666 222.336C96.4729 222.336 97.0544 222.095 97.4832 221.666L113.652 205.498C114.288 204.859 115.045 204.351 115.878 204.005C116.712 203.659 117.605 203.48 118.507 203.48C119.41 203.479 120.303 203.657 121.137 204.002C121.971 204.348 122.728 204.854 123.365 205.493C124.003 206.131 124.508 206.889 124.853 207.723C125.197 208.557 125.373 209.451 125.371 210.354C125.369 211.256 125.189 212.149 124.842 212.982C124.494 213.814 123.986 214.57 123.346 215.206L100.308 238.445C100.253 238.506 100.202 238.569 100.153 238.636L69.1931 250.246C68.8872 250.36 68.6095 250.539 68.379 250.77L34.0558 285.096C33.6269 285.525 33.3859 286.107 33.3857 286.713C33.3856 287.319 33.6265 287.901 34.0552 288.33C34.484 288.759 35.0655 289 35.672 289C36.2784 289 36.8601 288.759 37.289 288.331L71.2659 254.354L106.415 241.173C109.001 240.203 111.519 239.112 113.967 237.9L143.89 264.672C144.31 265.048 144.855 265.255 145.418 265.254C145.982 265.253 146.526 265.044 146.945 264.666L258.297 164.308C269.918 153.729 278.188 139.979 282.089 124.756C286.169 109.275 285.832 92.9617 281.117 77.6629C278.377 68.6338 274.101 60.1444 268.478 52.5677L288.397 32.6521C288.609 32.4398 288.778 32.1876 288.893 31.9101C289.008 31.6326 289.067 31.3351 289.067 31.0347C289.067 30.7342 289.008 30.4368 288.893 30.1592C288.778 29.8817 288.609 29.6295 288.397 29.4172ZM142.463 120.376L166.408 96.4345L210.095 77.7114L218.233 83.5056L199.075 102.593C197.208 104.453 196.041 106.902 195.773 109.523C195.504 112.145 196.15 114.778 197.601 116.978L190.733 123.846C189.96 124.628 189.009 125.211 187.962 125.546C186.915 125.881 185.802 125.958 184.719 125.77C183.636 125.583 182.614 125.136 181.74 124.469C180.866 123.802 180.166 122.933 179.701 121.937L196.305 105.336C196.733 104.907 196.974 104.326 196.975 103.719C196.975 103.113 196.734 102.531 196.305 102.102C195.876 101.673 195.295 101.432 194.688 101.432C194.082 101.432 193.5 101.673 193.071 102.102L168.329 126.844C167.556 127.624 166.606 128.206 165.56 128.54C164.514 128.875 163.402 128.952 162.32 128.765C161.238 128.578 160.217 128.133 159.344 127.467C158.471 126.801 157.771 125.934 157.304 124.94L183.972 98.2724C184.401 97.8436 184.642 97.262 184.643 96.6556C184.643 96.0491 184.402 95.4675 183.973 95.0386C183.544 94.6097 182.963 94.3687 182.356 94.3686C181.75 94.3684 181.168 94.6093 180.739 95.038L145.697 130.08C144.738 131.039 143.515 131.692 142.185 131.956C140.854 132.22 139.475 132.084 138.222 131.564C136.969 131.045 135.898 130.165 135.144 129.037C134.391 127.909 133.989 126.583 133.989 125.226C133.99 124.718 134.048 124.211 134.16 123.716C134.234 123.716 134.307 123.727 134.381 123.727C135.883 123.73 137.37 123.436 138.758 122.861C140.145 122.286 141.404 121.441 142.463 120.376ZM126.588 218.433C128.451 216.57 129.614 214.12 129.879 211.499C130.144 208.878 129.497 206.245 128.045 204.046L152.503 179.588C153.803 178.346 155.538 177.664 157.335 177.689C159.132 177.713 160.848 178.442 162.114 179.719C163.379 180.995 164.093 182.717 164.101 184.515C164.11 186.312 163.413 188.041 162.16 189.33L132.3 219.19C126.064 225.442 118.795 230.57 110.813 234.347L126.588 218.433ZM276.748 79.0125C285.907 108.732 277.463 140.88 255.235 160.913L145.409 259.895L118.275 235.618C124.592 232.011 130.396 227.573 135.534 222.423L165.394 192.563C166.953 191.007 168.029 189.033 168.493 186.88C168.956 184.726 168.786 182.485 168.004 180.426C167.222 178.366 165.861 176.577 164.085 175.274C162.31 173.97 160.195 173.208 157.996 173.08C159.112 170.643 159.336 167.891 158.63 165.306C157.924 162.72 156.331 160.465 154.131 158.934C151.931 157.403 149.263 156.694 146.594 156.93C143.924 157.167 141.422 158.333 139.525 160.227L139.515 160.237C139.218 158.134 138.341 156.156 136.982 154.524C135.623 152.892 133.837 151.671 131.823 150.998C129.808 150.325 127.647 150.227 125.58 150.715C123.513 151.202 121.623 152.256 120.122 153.758L111.119 162.758C110.824 160.656 109.948 158.677 108.591 157.044C107.233 155.411 105.447 154.19 103.433 153.516C101.419 152.843 99.2572 152.744 97.1905 153.232C95.1237 153.719 93.2338 154.773 91.733 156.275L63.8991 184.109C62.9844 184.217 62.0795 184.364 61.1786 184.531L35.905 161.921C13.8356 142.173 5.06252 109.123 14.0819 79.6813C21.7145 54.7673 40.3284 36.1866 63.8722 29.9774C86.1886 24.0895 108.926 30.1174 126.25 46.5105L143.842 63.1585C144.267 63.5606 144.829 63.7846 145.414 63.7846C145.999 63.7846 146.561 63.5606 146.986 63.1585L165.024 46.0886C175.815 35.8762 188.69 29.6744 202.556 27.9469L126.295 104.207C124.984 105.515 124.011 107.123 123.46 108.891C122.908 110.659 122.795 112.534 123.13 114.356C123.464 116.177 124.237 117.89 125.381 119.346C126.525 120.802 128.006 121.959 129.697 122.715C129.511 123.539 129.417 124.38 129.416 125.224C129.416 127.485 130.086 129.696 131.342 131.576C132.598 133.456 134.383 134.921 136.472 135.787C138.561 136.653 140.859 136.88 143.077 136.439C145.295 135.998 147.332 134.91 148.931 133.312L153.946 128.297C154.37 128.937 154.856 129.534 155.398 130.077C156.459 131.139 157.719 131.981 159.106 132.556C160.493 133.131 161.979 133.426 163.48 133.426C164.982 133.426 166.468 133.131 167.855 132.556C169.242 131.981 170.502 131.139 171.563 130.077L176.344 125.295C177.28 126.708 178.518 127.896 179.968 128.772C181.419 129.649 183.046 130.192 184.732 130.363C186.418 130.534 188.121 130.328 189.718 129.761C191.314 129.193 192.765 128.278 193.965 127.082L200.831 120.215C203.029 121.668 205.661 122.318 208.282 122.054C210.903 121.789 213.353 120.628 215.216 118.765L231.232 102.749C244.12 94.0664 253.782 81.3738 258.72 66.6398L260.876 60.1705L265.206 55.8403C270.322 62.8646 274.223 70.6973 276.748 79.0125Z" fill="url(#paint0_linear_5947_2638)"/>
<defs>
<linearGradient id="paint0_linear_5947_2638" x1="41.1867" y1="34" x2="247.404" y2="273.513" gradientUnits="userSpaceOnUse">
<stop stop-color="#7348EE"/>
<stop offset="1" stop-color="#8172AB"/>
</linearGradient>
</defs>
</svg>
