<svg width="41" height="40" viewBox="0 0 41 40" fill="none" xmlns="http://www.w3.org/2000/svg">
<path d="M20.2901 33.3335C20.4012 33.3335 20.5123 33.3057 20.6234 33.2502C20.7346 33.1946 20.8179 33.1391 20.8734 33.0835L34.5401 19.4168C34.8734 19.0835 35.1168 18.7085 35.2701 18.2918C35.4234 17.8752 35.4995 17.4585 35.4984 17.0418C35.4984 16.5974 35.4223 16.1735 35.2701 15.7702C35.1179 15.3668 34.8745 15.0129 34.5401 14.7085L27.4568 7.62516C27.1512 7.29183 26.7968 7.04905 26.3934 6.89683C25.9901 6.74461 25.5673 6.66794 25.1251 6.66683C24.7084 6.66683 24.2918 6.7435 23.8751 6.89683C23.4584 7.05016 23.0834 7.29294 22.7501 7.62516L22.2918 8.0835L25.3751 11.2085C25.7918 11.5974 26.0973 12.0418 26.2918 12.5418C26.4862 13.0418 26.5834 13.5696 26.5834 14.1252C26.5834 15.2918 26.1879 16.2713 25.3968 17.0635C24.6057 17.8557 23.6262 18.2513 22.4584 18.2502C21.9029 18.2502 21.3684 18.1529 20.8551 17.9585C20.3418 17.7641 19.8901 17.4724 19.5001 17.0835L16.3734 14.0002L9.08177 21.2918C8.99844 21.3752 8.93622 21.4657 8.8951 21.5635C8.85399 21.6613 8.83288 21.7652 8.83177 21.8752C8.83177 22.0974 8.9151 22.2991 9.08177 22.4802C9.24844 22.6613 9.44288 22.7513 9.6651 22.7502C9.77622 22.7502 9.88733 22.7224 9.99844 22.6668C10.1095 22.6113 10.1929 22.5557 10.2484 22.5002L15.9151 16.8335L18.2484 19.1668L12.6234 24.8335C12.5401 24.9168 12.4779 25.0074 12.4368 25.1052C12.3957 25.2029 12.3745 25.3068 12.3734 25.4168C12.3734 25.6391 12.4568 25.8335 12.6234 26.0002C12.7901 26.1668 12.9845 26.2502 13.2068 26.2502C13.3179 26.2502 13.429 26.2224 13.5401 26.1668C13.6512 26.1113 13.7345 26.0557 13.7901 26.0002L19.4568 20.3752L21.7901 22.7085L16.1651 28.3752C16.0818 28.4307 16.0195 28.514 15.9784 28.6252C15.9373 28.7363 15.9162 28.8474 15.9151 28.9585C15.9151 29.1807 15.9984 29.3752 16.1651 29.5418C16.3318 29.7085 16.5262 29.7918 16.7484 29.7918C16.8595 29.7918 16.964 29.7707 17.0618 29.7285C17.1595 29.6863 17.2496 29.6241 17.3318 29.5418L22.9984 23.9168L25.3318 26.2502L19.6651 31.9168C19.5818 32.0002 19.5195 32.0902 19.4784 32.1868C19.4373 32.2835 19.4162 32.3879 19.4151 32.5002C19.4151 32.7224 19.5057 32.9168 19.6868 33.0835C19.8679 33.2502 20.069 33.3335 20.2901 33.3335ZM20.2484 36.6668C19.2207 36.6668 18.3112 36.3268 17.5201 35.6468C16.729 34.9668 16.2634 34.1124 16.1234 33.0835C15.179 32.9446 14.3873 32.5557 13.7484 31.9168C13.1095 31.2779 12.7207 30.4863 12.5818 29.5418C11.6373 29.4029 10.8529 29.0074 10.2284 28.3552C9.60399 27.7029 9.22177 26.9179 9.08177 26.0002C8.02622 25.8613 7.1651 25.4029 6.49844 24.6252C5.83177 23.8474 5.49844 22.9307 5.49844 21.8752C5.49844 21.3196 5.60288 20.7852 5.81177 20.2718C6.02066 19.7585 6.31899 19.3068 6.70677 18.9168L16.3734 9.29183L21.8318 14.7502C21.8873 14.8335 21.9707 14.8963 22.0818 14.9385C22.1929 14.9807 22.304 15.0013 22.4151 15.0002C22.6651 15.0002 22.8734 14.9241 23.0401 14.7718C23.2068 14.6196 23.2901 14.4179 23.2901 14.1668C23.2901 14.0557 23.269 13.9446 23.2268 13.8335C23.1845 13.7224 23.1223 13.6391 23.0401 13.5835L17.0818 7.62516C16.7762 7.29183 16.4223 7.04905 16.0201 6.89683C15.6179 6.74461 15.194 6.66794 14.7484 6.66683C14.3318 6.66683 13.9151 6.7435 13.4984 6.89683C13.0818 7.05016 12.7068 7.29294 12.3734 7.62516L6.49844 13.5418C6.24844 13.7918 6.0401 14.0835 5.87344 14.4168C5.70677 14.7502 5.59566 15.0835 5.5401 15.4168C5.48455 15.7502 5.48455 16.0907 5.5401 16.4385C5.59566 16.7863 5.70677 17.1124 5.87344 17.4168L3.45677 19.8335C2.98455 19.1946 2.63733 18.4935 2.4151 17.7302C2.19288 16.9668 2.10955 16.1957 2.1651 15.4168C2.22066 14.6379 2.4151 13.8813 2.74844 13.1468C3.08177 12.4124 3.5401 11.7524 4.12344 11.1668L9.99844 5.29183C10.6651 4.65294 11.4084 4.16683 12.2284 3.8335C13.0484 3.50016 13.8884 3.3335 14.7484 3.3335C15.6084 3.3335 16.449 3.50016 17.2701 3.8335C18.0912 4.16683 18.8201 4.65294 19.4568 5.29183L19.9151 5.75016L20.3734 5.29183C21.0401 4.65294 21.7834 4.16683 22.6034 3.8335C23.4234 3.50016 24.2634 3.3335 25.1234 3.3335C25.9834 3.3335 26.824 3.50016 27.6451 3.8335C28.4662 4.16683 29.1951 4.65294 29.8318 5.29183L36.8734 12.3335C37.5123 12.9724 37.9984 13.7085 38.3318 14.5418C38.6651 15.3752 38.8318 16.2224 38.8318 17.0835C38.8318 17.9446 38.6651 18.7852 38.3318 19.6052C37.9984 20.4252 37.5123 21.1541 36.8734 21.7918L23.2068 35.4168C22.8179 35.8057 22.3668 36.1113 21.8534 36.3335C21.3401 36.5557 20.8051 36.6668 20.2484 36.6668Z" fill="#FB8C00"/>
</svg>
