<svg width="19" height="18" viewBox="0 0 19 18" fill="none" xmlns="http://www.w3.org/2000/svg">
<g id="location_on">
<g id="Vector">
<path d="M9.5 1.5C6.5975 1.5 4.25 3.8475 4.25 6.75C4.25 10.6875 9.5 16.5 9.5 16.5C9.5 16.5 14.75 10.6875 14.75 6.75C14.75 3.8475 12.4025 1.5 9.5 1.5ZM5.75 6.75C5.75 4.68 7.43 3 9.5 3C11.57 3 13.25 4.68 13.25 6.75C13.25 8.91 11.09 12.1425 9.5 14.16C7.94 12.1575 5.75 8.8875 5.75 6.75Z" fill="#37168B"/>
<path d="M9.5 8.625C10.5355 8.625 11.375 7.78553 11.375 6.75C11.375 5.71447 10.5355 4.875 9.5 4.875C8.46447 4.875 7.625 5.71447 7.625 6.75C7.625 7.78553 8.46447 8.625 9.5 8.625Z" fill="#37168B"/>
</g>
</g>
</svg>
