<svg width="42" height="52" viewBox="0 0 42 52" fill="none" xmlns="http://www.w3.org/2000/svg">
<g id="PayPal_Logo_Icon_2014 1" clip-path="url(#clip0_3321_11199)">
<g id="Group">
<path id="Vector" d="M16.4295 10.4004C16.0745 10.4004 15.7313 10.5277 15.4614 10.7596C15.1915 10.9914 15.0128 11.3125 14.9574 11.665L12.5109 27.265L10.2631 41.5995L10.2617 41.6115L10.2644 41.5995L12.5123 27.265C12.6265 26.5365 13.2503 26.0004 13.9835 26.0004H21.1507C28.3638 26.0004 34.4859 20.7084 35.604 13.5373C35.6892 12.9925 35.7348 12.4528 35.7452 11.9203V11.9194H35.7443C33.9113 10.9523 31.7587 10.4004 29.4002 10.4004H16.4295Z" fill="#001C64"/>
<path id="Vector_2" d="M35.746 11.9199C35.7359 12.4525 35.6898 12.9927 35.6048 13.5375C34.4867 20.7086 28.3646 26.0006 21.1515 26.0006H13.9843C13.2511 26.0006 12.6273 26.5367 12.5131 27.2652L10.2652 41.5997L8.85455 50.5931C8.82738 50.7668 8.83795 50.9444 8.88555 51.1136C8.93314 51.2828 9.01662 51.4397 9.13025 51.5733C9.24388 51.707 9.38496 51.8143 9.54378 51.888C9.7026 51.9616 9.87538 51.9997 10.0502 51.9997H17.8298C18.1848 51.9997 18.5281 51.8724 18.7979 51.6405C19.0678 51.4087 19.2465 51.0876 19.3019 50.7351L21.3513 37.6652C21.4661 36.9367 22.0902 36.3997 22.8233 36.3997H27.4042C34.6173 36.3997 40.7386 31.108 41.8567 23.9375C42.6504 18.847 40.1029 14.2161 35.746 11.9199Z" fill="#0070E0"/>
<path id="Vector_3" d="M7.59139 0C7.23634 1.11227e-05 6.89295 0.127497 6.62308 0.3595C6.3532 0.591503 6.17457 0.912781 6.11934 1.26547L0.0148301 40.1925C-0.012472 40.3663 -0.00198811 40.544 0.0455465 40.7133C0.0930811 40.8826 0.176541 41.0396 0.290184 41.1733C0.403827 41.3071 0.54496 41.4145 0.703845 41.4881C0.86273 41.5618 1.0356 41.5999 1.21055 41.6H10.2635L12.5113 27.2654L14.9578 11.6655C15.0132 11.3129 15.192 10.9918 15.4618 10.76C15.7317 10.5282 16.0749 10.4008 16.4299 10.4008H29.4C31.7591 10.4008 33.9117 10.9536 35.745 11.9193C35.8699 5.3908 30.5129 0 23.1468 0H7.59139Z" fill="#003087"/>
</g>
</g>
<defs>
<clipPath id="clip0_3321_11199">
<rect width="42" height="52" fill="white"/>
</clipPath>
</defs>
</svg>
