<svg width="40" height="40" viewBox="0 0 40 40" fill="none" xmlns="http://www.w3.org/2000/svg">
<path d="M26.6693 28.3337V31.6671H3.33594V28.3337C3.33594 28.3337 3.33594 21.6671 15.0026 21.6671C26.6693 21.6671 26.6693 28.3337 26.6693 28.3337ZM20.8359 12.5004C20.8359 11.3467 20.4938 10.2188 19.8528 9.25956C19.2119 8.30027 18.3008 7.5526 17.2349 7.11109C16.169 6.66958 14.9961 6.55406 13.8646 6.77914C12.733 7.00422 11.6936 7.55979 10.8778 8.3756C10.062 9.1914 9.50644 10.2308 9.28136 11.3624C9.05628 12.4939 9.1718 13.6668 9.61331 14.7327C10.0548 15.7986 10.8025 16.7097 11.7618 17.3506C12.7211 17.9916 13.8489 18.3337 15.0026 18.3337C16.5497 18.3337 18.0334 17.7191 19.1274 16.6252C20.2214 15.5312 20.8359 14.0475 20.8359 12.5004ZM26.5693 21.6671C27.5939 22.46 28.4322 23.4678 29.0254 24.6196C29.6186 25.7714 29.9521 27.0391 30.0026 28.3337V31.6671H36.6693V28.3337C36.6693 28.3337 36.6693 22.2837 26.5693 21.6671ZM25.0026 6.66705C23.8556 6.66172 22.7339 7.00461 21.7859 7.65039C22.7983 9.06495 23.3427 10.7609 23.3427 12.5004C23.3427 14.2399 22.7983 15.9358 21.7859 17.3504C22.7339 17.9962 23.8556 18.3391 25.0026 18.3337C26.5497 18.3337 28.0334 17.7191 29.1274 16.6252C30.2214 15.5312 30.8359 14.0475 30.8359 12.5004C30.8359 10.9533 30.2214 9.46956 29.1274 8.3756C28.0334 7.28164 26.5497 6.66705 25.0026 6.66705Z" fill="#9E9E9E"/>
</svg>
