<svg width="40" height="40" viewBox="0 0 40 40" fill="none" xmlns="http://www.w3.org/2000/svg">
<path d="M8.33073 36.6671C7.8887 36.6671 7.46478 36.4915 7.15222 36.1789C6.83966 35.8664 6.66406 35.4424 6.66406 35.0004V5.00041C6.66406 4.55838 6.83966 4.13446 7.15222 3.8219C7.46478 3.50933 7.8887 3.33374 8.33073 3.33374H31.6641C32.1061 3.33374 32.53 3.50933 32.8426 3.8219C33.1551 4.13446 33.3307 4.55838 33.3307 5.00041V35.0004C33.3307 35.4424 33.1551 35.8664 32.8426 36.1789C32.53 36.4915 32.1061 36.6671 31.6641 36.6671H8.33073Z" stroke="#009E5A" stroke-width="3.33333" stroke-linejoin="round"/>
<path d="M17.5 18.3337V3.33374H27.5V18.3337L22.5 13.1062L17.5 18.3337Z" stroke="#009E5A" stroke-width="3.33333" stroke-linecap="round" stroke-linejoin="round"/>
<path d="M8.32812 3.33374H31.6615" stroke="#009E5A" stroke-width="3.33333" stroke-linecap="round" stroke-linejoin="round"/>
</svg>
