<svg width="48" height="48" viewBox="0 0 48 48" fill="none" xmlns="http://www.w3.org/2000/svg">
<g id="campaign">
<g id="Vector">
<path d="M36 22C36 23.34 36 24.66 36 26C38.4 26 41.52 26 44 26C44 24.66 44 23.34 44 22C41.52 22 38.4 22 36 22Z" fill="#475800"/>
<path d="M32 35.22C33.92 36.64 36.42 38.52 38.4 40C39.2 38.94 40 37.86 40.8 36.8C38.82 35.32 36.32 33.44 34.4 32C33.6 33.08 32.8 34.16 32 35.22Z" fill="#475800"/>
<path d="M40.8 11.2C40 10.14 39.2 9.06 38.4 8C36.42 9.48 33.92 11.36 32 12.8C32.8 13.86 33.6 14.94 34.4 16C36.32 14.56 38.82 12.7 40.8 11.2Z" fill="#475800"/>
<path d="M8 18C5.8 18 4 19.8 4 22V26C4 28.2 5.8 30 8 30H10V38H14V30H16L26 36V12L16 18H8ZM18.06 21.42L22 19.06V28.94L18.06 26.58L17.1 26H8V22H17.1L18.06 21.42Z" fill="#475800"/>
<path d="M31 24C31 21.34 29.84 18.94 28 17.3V30.68C29.84 29.06 31 26.66 31 24Z" fill="#475800"/>
</g>
</g>
</svg>
